<svg width="146" height="146" viewBox="0 0 146 146" fill="none" xmlns="http://www.w3.org/2000/svg">
<rect width="146" height="146" rx="12" fill="#F6F9FC"/>
<g opacity="0.3">
<path d="M68.9997 70.3333C70.4724 70.3333 71.6663 69.1394 71.6663 67.6667C71.6663 66.1939 70.4724 65 68.9997 65C67.5269 65 66.333 66.1939 66.333 67.6667C66.333 69.1394 67.5269 70.3333 68.9997 70.3333Z" stroke="black" stroke-width="1.5" stroke-linecap="round" stroke-linejoin="round"/>
<path d="M74.3337 59.6665H69.0003C62.3337 59.6665 59.667 62.3332 59.667 68.9998V76.9998C59.667 83.6665 62.3337 86.3332 69.0003 86.3332H77.0003C83.667 86.3332 86.3337 83.6665 86.3337 76.9998V70.3332" stroke="black" stroke-width="1.5" stroke-linecap="round" stroke-linejoin="round"/>
<path d="M78 63.6665H85.3333" stroke="black" stroke-width="1.5" stroke-linecap="round"/>
<path d="M81.667 67.3333V60" stroke="black" stroke-width="1.5" stroke-linecap="round"/>
<path d="M60.5596 82.2666L67.1329 77.8532C68.1862 77.1466 69.7062 77.2266 70.6529 78.0399L71.0929 78.4266C72.1329 79.3199 73.8129 79.3199 74.8529 78.4266L80.3996 73.6666C81.4396 72.7732 83.1196 72.7732 84.1596 73.6666L86.3329 75.5332" stroke="black" stroke-width="1.5" stroke-linecap="round" stroke-linejoin="round"/>
</g>
</svg>
