<svg width="40" height="40" viewBox="0 0 40 40" fill="none" xmlns="http://www.w3.org/2000/svg">
<rect width="40" height="40" rx="12" fill="#F7F9FC"/>
<path d="M25.8322 18.1175V18.1175H25.8275H22.7975C22.2571 18.1175 22.0709 18.0157 22.0111 17.9627C21.9749 17.9307 21.875 17.82 21.875 17.3825V13.985C21.875 13.5528 21.9742 13.4404 22.0122 13.4066C22.0729 13.3527 22.2598 13.25 22.7975 13.25H25.8275C26.3652 13.25 26.5521 13.3527 26.6128 13.4066C26.6508 13.4404 26.75 13.5528 26.75 13.985V17.39C26.75 17.8228 26.6506 17.934 26.6139 17.9665C26.5549 18.0187 26.3695 18.1209 25.8322 18.1175Z" stroke="#1E2022" stroke-width="1.5" stroke-linecap="round" stroke-linejoin="round"/>
<path d="M26.75 22.7975V25.8275C26.75 26.3486 26.6407 26.5205 26.5806 26.5806C26.5205 26.6407 26.3486 26.75 25.8275 26.75H22.7975C22.2764 26.75 22.1045 26.6407 22.0444 26.5806C21.9843 26.5205 21.875 26.3486 21.875 25.8275V22.7975C21.875 22.2764 21.9843 22.1045 22.0444 22.0444C22.1045 21.9843 22.2764 21.875 22.7975 21.875H25.8275C26.3486 21.875 26.5205 21.9843 26.5806 22.0444C26.6407 22.1045 26.75 22.2764 26.75 22.7975Z" stroke="#1E2022" stroke-width="1.5" stroke-linecap="round" stroke-linejoin="round"/>
<path d="M17.2072 18.1175V18.1175H17.2025H14.1725C13.6321 18.1175 13.4459 18.0157 13.3861 17.9627C13.3499 17.9307 13.25 17.82 13.25 17.3825V13.985C13.25 13.5528 13.3492 13.4404 13.3872 13.4066C13.4479 13.3527 13.6348 13.25 14.1725 13.25H17.2025C17.7402 13.25 17.9271 13.3527 17.9878 13.4066C18.0258 13.4404 18.125 13.5528 18.125 13.985V17.39C18.125 17.8228 18.0256 17.934 17.9889 17.9665C17.9299 18.0187 17.7445 18.1209 17.2072 18.1175Z" stroke="#1E2022" stroke-width="1.5" stroke-linecap="round" stroke-linejoin="round"/>
<path d="M18.125 22.7975V25.8275C18.125 26.3486 18.0157 26.5205 17.9556 26.5806C17.8955 26.6407 17.7236 26.75 17.2025 26.75H14.1725C13.6514 26.75 13.4795 26.6407 13.4194 26.5806C13.3593 26.5205 13.25 26.3486 13.25 25.8275V22.7975C13.25 22.2764 13.3593 22.1045 13.4194 22.0444C13.4795 21.9843 13.6514 21.875 14.1725 21.875H17.2025C17.7236 21.875 17.8955 21.9843 17.9556 22.0444C18.0157 22.1045 18.125 22.2764 18.125 22.7975Z" stroke="#1E2022" stroke-width="1.5" stroke-linecap="round" stroke-linejoin="round"/>
</svg>
