<svg width="180" height="52" viewBox="0 0 180 52" fill="none" xmlns="http://www.w3.org/2000/svg">
<rect width="180" height="52" fill="white"/>
<path d="M31.4883 6H10.5117C4.70623 6 0 10.7062 0 16.5117V37.4883C0 43.2938 4.70623 48 10.5117 48H31.4883C37.2938 48 42 43.2938 42 37.4883V16.5117C42 10.7062 37.2938 6 31.4883 6Z" fill="#1E2022"/>
<path d="M19.8915 18.6117C19.9084 17.6986 19.738 16.7916 19.3909 15.9469C19.0438 15.1021 18.5272 14.3374 17.8731 13.7C17.2313 13.0494 16.4639 12.536 15.6176 12.191C14.7712 11.8461 13.8636 11.6768 12.9498 11.6934C12.0392 11.684 11.1359 11.8566 10.293 12.2011C9.44999 12.5456 8.68435 13.055 8.04097 13.6995C7.3976 14.344 6.88945 15.1105 6.54638 15.954C6.2033 16.7976 6.0322 17.7011 6.04313 18.6117C6.03057 19.5222 6.20064 20.4259 6.54328 21.2696C6.88593 22.1132 7.3942 22.8796 8.03806 23.5234C8.68192 24.1673 9.44831 24.6756 10.2919 25.0182C11.1356 25.3609 12.0393 25.5309 12.9498 25.5184C13.7433 25.5291 14.5326 25.4028 15.2831 25.145C15.4202 25.0923 15.5681 25.0735 15.714 25.0904C15.8599 25.1072 15.9996 25.1591 16.1212 25.2416C16.2427 25.3241 16.3424 25.4349 16.4118 25.5643C16.4812 25.6938 16.5183 25.8381 16.5198 25.985C16.5198 26.2244 16.614 26.4541 16.7822 26.6244C16.9503 26.7947 17.1788 26.892 17.4181 26.895H18.9815C19.2228 26.895 19.4543 26.7992 19.6249 26.6285C19.7956 26.4579 19.8915 26.2264 19.8915 25.985V18.6117ZM15.4931 21.1667C15.1602 21.5003 14.7633 21.7631 14.3262 21.9395C13.8892 22.116 13.421 22.2023 12.9498 22.1934C12.4817 22.2053 12.0161 22.1202 11.5824 21.9436C11.1488 21.7669 10.7563 21.5024 10.4298 21.1667C10.0926 20.8273 9.82851 20.4224 9.65393 19.9769C9.47935 19.5314 9.39797 19.0549 9.4148 18.5767C9.39797 18.0985 9.47935 17.622 9.65393 17.1765C9.82851 16.7311 10.0926 16.3261 10.4298 15.9867C10.7546 15.6487 11.1467 15.3827 11.5808 15.2058C12.0149 15.029 12.4813 14.9452 12.9498 14.96C13.4216 14.9463 13.8912 15.0304 14.3289 15.2071C14.7667 15.3838 15.1631 15.6492 15.4931 15.9867C15.8304 16.3261 16.0944 16.7311 16.269 17.1765C16.4436 17.622 16.525 18.0985 16.5081 18.5767C16.525 19.0549 16.4436 19.5314 16.269 19.9769C16.0944 20.4224 15.8304 20.8273 15.4931 21.1667Z" fill="#FFC549"/>
<path d="M34.125 23.5C32.8149 24.7931 31.0482 25.5182 29.2075 25.5182C27.3667 25.5182 25.6 24.7931 24.29 23.5C23.6397 22.8604 23.1264 22.095 22.7814 21.2506C22.4364 20.4062 22.2669 19.5004 22.2833 18.5883C22.2771 17.6821 22.4509 16.7837 22.7944 15.9451C23.138 15.1066 23.6446 14.3445 24.2849 13.7032C24.9251 13.0618 25.6863 12.5539 26.5243 12.2089C27.3623 11.8639 28.2604 11.6887 29.1666 11.6933C30.0837 11.6762 30.995 11.8428 31.8466 12.1834C32.6983 12.524 33.4732 13.0316 34.1256 13.6764C34.7779 14.3211 35.2946 15.09 35.6452 15.9376C35.9957 16.7852 36.173 17.6945 36.1666 18.6117C36.1774 19.5226 36.0018 20.4261 35.6507 21.2667C35.2996 22.1073 34.7804 22.8673 34.125 23.5ZM26.67 21.1667C27.0016 21.4988 27.3966 21.7608 27.8315 21.9372C28.2664 22.1136 28.7324 22.2007 29.2016 22.1933C29.6713 22.1936 30.1361 22.0994 30.5685 21.9162C31.001 21.7331 31.3921 21.4648 31.7187 21.1273C32.0453 20.7899 32.3006 20.3901 32.4695 19.9519C32.6383 19.5137 32.7173 19.046 32.7016 18.5767C32.7185 18.0985 32.6371 17.622 32.4625 17.1765C32.2879 16.731 32.0239 16.3261 31.6866 15.9867C31.3535 15.6623 30.9591 15.4075 30.5264 15.2372C30.0938 15.067 29.6315 14.9846 29.1666 14.995C28.6966 14.9815 28.2288 15.0657 27.793 15.2425C27.3572 15.4192 26.9628 15.6845 26.635 16.0217C26.3061 16.365 26.0507 16.7717 25.8842 17.217C25.7177 17.6623 25.6437 18.1368 25.6666 18.6117C25.6531 19.0832 25.735 19.5526 25.9074 19.9916C26.0798 20.4307 26.3392 20.8304 26.67 21.1667Z" fill="#FFC549"/>
<path d="M17.8735 39.95C17.2316 40.6006 16.4642 41.114 15.6179 41.459C14.7716 41.8039 13.8639 41.9732 12.9501 41.9566C12.0395 41.966 11.1362 41.7934 10.2933 41.4489C9.45032 41.1044 8.68468 40.595 8.0413 39.9505C7.39793 39.306 6.88979 38.5395 6.54671 37.696C6.20363 36.8525 6.03253 35.9489 6.04346 35.0383C6.03877 34.1316 6.21447 33.2331 6.56034 32.395C6.90621 31.5569 7.41533 30.7959 8.05808 30.1564C8.70082 29.5169 9.46435 29.0117 10.3042 28.6701C11.1441 28.3285 12.0435 28.1573 12.9501 28.1666C13.8639 28.15 14.7716 28.3193 15.6179 28.6643C16.4642 29.0092 17.2316 29.5226 17.8735 30.1733C19.1631 31.4828 19.8859 33.247 19.8859 35.085C19.8859 36.9229 19.1631 38.6871 17.8735 39.9966V39.95ZM10.4301 37.6166C10.7529 37.9588 11.1441 38.2292 11.5783 38.4101C12.0125 38.591 12.4799 38.6784 12.9501 38.6666C13.422 38.6804 13.8916 38.5963 14.3293 38.4196C14.767 38.2429 15.1634 37.9774 15.4935 37.64C16.1453 36.935 16.5074 36.0101 16.5074 35.05C16.5074 34.0898 16.1453 33.165 15.4935 32.46C15.1634 32.1225 14.767 31.8571 14.3293 31.6804C13.8916 31.5037 13.422 31.4196 12.9501 31.4333C12.4816 31.4185 12.0152 31.5023 11.5811 31.6791C11.147 31.856 10.7549 32.122 10.4301 32.46C9.77827 33.165 9.41622 34.0898 9.41622 35.05C9.41622 36.0101 9.77827 36.935 10.4301 37.64V37.6166Z" fill="#FFC549"/>
<path d="M22.2834 35.1666C22.2664 36.0798 22.4368 36.9867 22.7839 37.8315C23.1311 38.6762 23.6476 39.4409 24.3017 40.0783C25.6118 41.3714 27.3784 42.0965 29.2192 42.0965C31.06 42.0965 32.8267 41.3714 34.1367 40.0783C35.4263 38.7687 36.1492 37.0045 36.1492 35.1666C36.1492 33.3287 35.4263 31.5645 34.1367 30.255C33.4996 29.6013 32.7347 29.0858 31.8897 28.7406C31.0447 28.3953 30.1376 28.2278 29.225 28.2483C28.4321 28.2442 27.6438 28.3703 26.8917 28.6216C26.7571 28.6742 26.6118 28.6935 26.4682 28.678C26.3245 28.6624 26.1867 28.6125 26.0665 28.5323C25.9463 28.4522 25.8472 28.3442 25.7776 28.2176C25.708 28.091 25.6699 27.9494 25.6667 27.805C25.6636 27.5656 25.5664 27.3372 25.3961 27.169C25.2258 27.0009 24.996 26.9066 24.7567 26.9066H23.1934C22.9551 26.9066 22.7266 27.0013 22.5582 27.1697C22.3897 27.3382 22.295 27.5667 22.295 27.805V35.1666H22.2834ZM26.6934 32.5766C27.3723 31.9194 28.2802 31.552 29.225 31.552C30.1699 31.552 31.0778 31.9194 31.7567 32.5766C32.4011 33.2853 32.7581 34.2088 32.7581 35.1666C32.7581 36.1245 32.4011 37.0479 31.7567 37.7566C31.075 38.4084 30.1682 38.7722 29.225 38.7722C28.2819 38.7722 27.3751 38.4084 26.6934 37.7566C26.0338 37.0555 25.6666 36.1292 25.6666 35.1666C25.6666 34.204 26.0338 33.2777 26.6934 32.5766Z" fill="#FFC549"/>
<path d="M81.0648 25.9607C80.359 26.6569 79.521 27.2046 78.6001 27.5717C77.6793 27.9388 76.6942 28.1178 75.7031 28.0981C74.7153 28.1201 73.7332 27.942 72.816 27.5747C71.8988 27.2074 71.0653 26.6584 70.3657 25.9607C69.6581 25.284 69.0985 24.4678 68.7222 23.5639C68.3459 22.66 68.1611 21.6878 68.1795 20.7089C68.1621 19.7319 68.3474 18.7618 68.7237 17.86C69.1 16.9582 69.6591 16.1442 70.3657 15.4692C71.0653 14.7716 71.8988 14.2226 72.816 13.8552C73.7332 13.4879 74.7153 13.3099 75.7031 13.3318C76.6949 13.3066 77.6816 13.483 78.6033 13.8504C79.5249 14.2178 80.3624 14.7685 81.0648 15.4692C81.7715 16.1442 82.3306 16.9582 82.7069 17.86C83.0832 18.7618 83.2685 19.7319 83.2511 20.7089C83.2694 21.6878 83.0846 22.66 82.7083 23.5639C82.332 24.4678 81.7724 25.284 81.0648 25.9607ZM72.955 23.518C73.498 24.0652 74.192 24.4379 74.9481 24.5883C75.7042 24.7387 76.4879 24.6599 77.199 24.3621C77.9101 24.0643 78.516 23.561 78.9393 22.9167C79.3625 22.2724 79.5838 21.5164 79.5748 20.7455C79.5929 20.2333 79.5033 19.7229 79.3119 19.2475C79.1204 18.772 78.8314 18.342 78.4633 17.9852C77.9228 17.4369 77.2305 17.0628 76.4756 16.9111C75.7207 16.7593 74.9377 16.8368 74.2272 17.1336C73.5168 17.4304 72.9113 17.9329 72.4887 18.5766C72.0661 19.2203 71.8457 19.9756 71.8558 20.7455C71.8432 21.2523 71.9342 21.7564 72.1232 22.2268C72.3122 22.6973 72.5952 23.1242 72.955 23.4814V23.518Z" fill="black"/>
<path d="M97.9807 25.9607C96.5371 27.3318 94.6221 28.0963 92.6311 28.0963C90.6401 28.0963 88.7252 27.3318 87.2816 25.9607C86.5756 25.2833 86.0179 24.4668 85.6437 23.5628C85.2694 22.6588 85.0869 21.687 85.1075 20.7088C85.0878 19.7326 85.2709 18.7629 85.6451 17.861C86.0193 16.9591 86.5765 16.1447 87.2816 15.4691C88.7252 14.098 90.6401 13.3335 92.6311 13.3335C94.6221 13.3335 96.5371 14.098 97.9807 15.4691C98.7002 16.1373 99.2719 16.9487 99.6589 17.8511C100.046 18.7535 100.24 19.727 100.228 20.7088C100.241 21.6926 100.047 22.6681 99.6603 23.5726C99.2733 24.4772 98.7011 25.2906 97.9807 25.9607ZM89.8708 23.5179C90.2319 23.8785 90.6633 24.1611 91.1381 24.3481C91.6129 24.5351 92.1211 24.6225 92.6311 24.6049C93.1508 24.6289 93.6699 24.5449 94.1555 24.3581C94.641 24.1712 95.0826 23.8857 95.4522 23.5196C95.8218 23.1534 96.1114 22.7146 96.3028 22.2308C96.4941 21.747 96.583 21.2287 96.5639 20.7088C96.5642 20.189 96.4557 19.6748 96.2453 19.1994C96.035 18.724 95.7275 18.2979 95.3425 17.9485C94.9802 17.5897 94.5486 17.3083 94.0741 17.1214C93.5996 16.9346 93.092 16.8461 92.5823 16.8615C92.0701 16.8352 91.5581 16.9167 91.0794 17.1007C90.6007 17.2847 90.166 17.5672 89.8033 17.9299C89.4407 18.2925 89.1582 18.7272 88.9742 19.2059C88.7902 19.6846 88.7087 20.1966 88.735 20.7088C88.7243 21.2241 88.8196 21.7361 89.015 22.213C89.2104 22.6899 89.5017 23.1216 89.8708 23.4813V23.5179Z" fill="black"/>
<path d="M72.0022 36.5744C72.0004 36.7538 72.0457 36.9305 72.1336 37.087C72.2215 37.2434 72.3488 37.3741 72.503 37.4659C72.8785 37.7016 73.2916 37.8709 73.7244 37.9667C74.2048 38.0888 74.6811 38.2232 75.1534 38.3698C75.6171 38.504 76.038 38.7566 76.3747 39.1026C76.5505 39.2891 76.6848 39.5106 76.769 39.7527C76.8532 39.9947 76.8853 40.2518 76.8633 40.5071C76.869 40.8356 76.7968 41.1608 76.6524 41.456C76.508 41.7511 76.2956 42.0078 76.0327 42.2048C75.3998 42.666 74.6289 42.8986 73.8465 42.8644C73.1311 42.8818 72.4249 42.7 71.8068 42.3392C71.2619 42.0336 70.8327 41.5572 70.5854 40.9835L71.5259 40.4339C71.6723 40.8641 71.9724 41.2251 72.3686 41.4476C72.8005 41.6724 73.2802 41.7897 73.7671 41.7897C74.254 41.7897 74.7337 41.6724 75.1656 41.4476C75.3486 41.3657 75.5051 41.2342 75.6174 41.068C75.7296 40.9018 75.7931 40.7075 75.8007 40.5071C75.805 40.3272 75.7608 40.1495 75.6727 39.9926C75.5846 39.8357 75.4558 39.7055 75.2999 39.6155C74.9215 39.3859 74.5093 39.2169 74.0786 39.1148C73.5982 38.9927 73.1218 38.8583 72.6496 38.7117C72.1853 38.5785 71.7642 38.3258 71.4282 37.9789C71.2506 37.7927 71.1134 37.5719 71.0251 37.3302C70.9368 37.0885 70.8994 36.8312 70.9152 36.5744C70.9114 36.2539 70.9823 35.937 71.1222 35.6487C71.2621 35.3604 71.4672 35.1086 71.7213 34.9133C72.298 34.4508 73.0224 34.2122 73.761 34.2416C74.3857 34.2252 75.0027 34.3816 75.5442 34.6935C76.0392 34.9743 76.4358 35.4008 76.6801 35.9148L75.764 36.44C75.595 36.0618 75.3094 35.7475 74.949 35.5432C74.5887 35.3388 74.1724 35.255 73.761 35.3041C73.3309 35.2962 72.9073 35.4106 72.5396 35.6339C72.374 35.7281 72.2367 35.8651 72.1421 36.0305C72.0476 36.196 71.9992 36.3838 72.0022 36.5744Z" fill="black"/>
<path d="M85.3886 35.4874H82.9458V40.4339C82.9114 40.7778 83.0073 41.1222 83.2145 41.3988C83.3209 41.4977 83.4459 41.5745 83.5821 41.6248C83.7184 41.6751 83.8633 41.6979 84.0084 41.6919C84.3626 41.6919 84.8145 41.6919 85.3519 41.6919V42.6324C84.474 42.8477 83.5491 42.7617 82.726 42.3881C82.4216 42.1705 82.1839 41.8724 82.0393 41.5272C81.8948 41.1821 81.8492 40.8035 81.9077 40.4339V35.4874H80.1367V34.4004H81.9077V32.4706L83.0069 32.1531V34.4004H85.4496L85.3886 35.4874Z" fill="black"/>
<path d="M96.3071 41.5698C95.4691 42.368 94.3561 42.8133 93.1987 42.8133C92.0414 42.8133 90.9284 42.368 90.0903 41.5698C89.6856 41.171 89.3642 40.6956 89.1448 40.1714C88.9255 39.6472 88.8125 39.0846 88.8125 38.5164C88.8125 37.9482 88.9255 37.3856 89.1448 36.8614C89.3642 36.3372 89.6856 35.8619 90.0903 35.463C90.9312 34.6703 92.0431 34.2288 93.1987 34.2288C94.3543 34.2288 95.4663 34.6703 96.3071 35.463C96.7118 35.8619 97.0332 36.3372 97.2526 36.8614C97.472 37.3856 97.5849 37.9482 97.5849 38.5164C97.5849 39.0846 97.472 39.6472 97.2526 40.1714C97.0332 40.6956 96.7118 41.171 96.3071 41.5698ZM90.8598 40.8248C91.1654 41.1304 91.5295 41.3712 91.9303 41.5328C92.3312 41.6944 92.7605 41.7735 93.1926 41.7652C93.625 41.7756 94.055 41.6975 94.4561 41.5358C94.8572 41.3741 95.2211 41.1321 95.5254 40.8248C96.134 40.2156 96.4759 39.3897 96.4759 38.5286C96.4759 37.6675 96.134 36.8416 95.5254 36.2325C95.2229 35.9227 94.8593 35.6792 94.4578 35.5173C94.0562 35.3554 93.6254 35.2787 93.1926 35.292C92.7601 35.2809 92.33 35.3586 91.9287 35.5204C91.5275 35.6822 91.1637 35.9245 90.8598 36.2325C90.2571 36.8448 89.9193 37.6695 89.9193 38.5286C89.9193 39.3878 90.2571 40.2125 90.8598 40.8248Z" fill="black"/>
<path d="M103.11 35.7927C103.354 35.3121 103.735 34.9142 104.204 34.6491C104.674 34.384 105.211 34.2635 105.749 34.3026V35.353C105.061 35.3273 104.389 35.5629 103.868 36.0125C103.595 36.2755 103.386 36.5966 103.254 36.9519C103.123 37.3072 103.074 37.6875 103.11 38.0644V42.6079H102.011V34.4003H103.11V35.7927Z" fill="black"/>
<path d="M113.187 34.2415C113.749 34.221 114.309 34.3253 114.827 34.5471C115.344 34.7688 115.806 35.1024 116.179 35.5239C116.934 36.35 117.345 37.4337 117.327 38.5529C117.336 38.7238 117.336 38.895 117.327 39.0659H109.999C110.039 39.4484 110.155 39.8192 110.339 40.1568C110.524 40.4943 110.773 40.7919 111.074 41.0323C111.714 41.5312 112.509 41.7904 113.321 41.7651C113.866 41.7656 114.403 41.6313 114.884 41.3742C115.319 41.1466 115.679 40.799 115.922 40.3727L116.887 40.9345C116.518 41.5126 116.005 41.9842 115.397 42.3025C114.727 42.6532 113.98 42.8296 113.223 42.8154C112.635 42.8356 112.049 42.7379 111.5 42.5282C110.95 42.3184 110.448 42.0008 110.023 41.5941C109.62 41.1946 109.303 40.7161 109.093 40.1886C108.883 39.6611 108.784 39.096 108.802 38.5285C108.786 37.956 108.889 37.3866 109.102 36.8553C109.316 36.3241 109.637 35.8426 110.045 35.4405C110.453 35.0385 110.939 34.7246 111.473 34.5183C112.007 34.3121 112.578 34.2178 113.15 34.2415H113.187ZM113.187 35.2918C112.393 35.2646 111.618 35.5347 111.013 36.0491C110.432 36.5683 110.07 37.2885 109.999 38.0643H116.216C116.147 37.2915 115.784 36.5745 115.202 36.0613C114.651 35.5601 113.931 35.2853 113.187 35.2918Z" fill="black"/>
<path d="M65.0041 41.8262C64.8361 41.9981 64.6344 42.1335 64.4116 42.2239C64.1888 42.3143 63.9498 42.3577 63.7095 42.3514C63.2887 42.3478 62.8821 42.1984 62.559 41.9288C62.2359 41.6591 62.0163 41.2858 61.9375 40.8724C61.8587 40.4591 61.9256 40.0311 62.1268 39.6615C62.328 39.2919 62.6511 39.0035 63.041 38.8453C63.431 38.6871 63.8637 38.6689 64.2656 38.7939C64.6674 38.9189 65.0135 39.1793 65.245 39.5307C65.4764 39.8822 65.5789 40.303 65.535 40.7215C65.4911 41.1401 65.3035 41.5304 65.0041 41.8262Z" fill="black"/>
<path d="M65.5537 20.7088C65.5717 19.7306 65.3855 18.7593 65.007 17.8571C64.6284 16.9549 64.0659 16.1416 63.3552 15.4691C61.9116 14.098 59.9966 13.3335 58.0056 13.3335C56.0147 13.3335 54.0997 14.098 52.6561 15.4691C51.951 16.1447 51.3938 16.9591 51.0196 17.861C50.6454 18.7629 50.4624 19.7326 50.482 20.7088C50.4614 21.687 50.644 22.6588 51.0182 23.5628C51.3924 24.4668 51.9501 25.2833 52.6561 25.9607C53.3571 26.6598 54.1926 27.2097 55.112 27.5771C56.0315 27.9444 57.0158 28.1217 58.0056 28.0981C59.3652 28.1122 60.7032 27.7576 61.8774 27.0721V33.3866H65.5415V20.8431C65.5415 20.8431 65.5537 20.7577 65.5537 20.7088ZM60.7659 23.4813C60.4035 23.8401 59.972 24.1215 59.4975 24.3084C59.0229 24.4953 58.5154 24.5837 58.0056 24.5683C57.4972 24.5879 56.9903 24.5013 56.5172 24.3141C56.044 24.127 55.6151 23.8434 55.2576 23.4813C54.8932 23.1198 54.6075 22.687 54.4184 22.2099C54.2292 21.7328 54.1407 21.2217 54.1583 20.7088C54.1387 20.1975 54.2263 19.6877 54.4156 19.2122C54.605 18.7368 54.8918 18.3063 55.2576 17.9485C55.6151 17.5865 56.044 17.3028 56.5172 17.1157C56.9903 16.9285 57.4972 16.842 58.0056 16.8615C58.5154 16.8461 59.0229 16.9346 59.4975 17.1214C59.972 17.3083 60.4035 17.5897 60.7659 17.9485C61.1339 18.3053 61.423 18.7353 61.6145 19.2108C61.8059 19.6862 61.8955 20.1966 61.8774 20.7088C61.8972 21.2231 61.8085 21.7357 61.617 22.2134C61.4255 22.6911 61.1355 23.1231 60.7659 23.4813Z" fill="black"/>
<path d="M102.964 20.7211C102.939 21.6958 103.117 22.6651 103.488 23.5672C103.858 24.4693 104.412 25.2844 105.114 25.9607C106.558 27.3319 108.473 28.0964 110.464 28.0964C112.455 28.0964 114.37 27.3319 115.813 25.9607C116.52 25.2858 117.079 24.4718 117.455 23.5699C117.831 22.6681 118.017 21.6981 117.999 20.7211C118.018 19.7421 117.833 18.77 117.457 17.8661C117.08 16.9621 116.521 16.146 115.813 15.4692C115.114 14.7715 114.28 14.2225 113.363 13.8552C112.446 13.4879 111.464 13.3099 110.476 13.3318C109.111 13.3198 107.769 13.6786 106.592 14.37V8.05554H102.928V20.5867C102.928 20.5867 102.964 20.6722 102.964 20.7211ZM107.74 17.9486C108.105 17.59 108.539 17.3088 109.015 17.122C109.492 16.9353 110.001 16.8467 110.512 16.8616C111.023 16.8463 111.531 16.9357 112.005 17.1244C112.48 17.3131 112.911 17.5971 113.271 17.9587C113.632 18.3204 113.914 18.7521 114.102 19.2272C114.289 19.7023 114.377 20.2107 114.36 20.7211C114.383 21.2355 114.301 21.7492 114.117 22.2301C113.933 22.711 113.651 23.1487 113.29 23.5156C112.929 23.8826 112.495 24.171 112.017 24.3626C111.539 24.5543 111.027 24.6451 110.512 24.6294C110.001 24.6444 109.492 24.5558 109.015 24.369C108.539 24.1822 108.105 23.901 107.74 23.5424C107.374 23.1846 107.087 22.7541 106.898 22.2787C106.709 21.8033 106.621 21.2935 106.641 20.7822C106.614 20.2591 106.699 19.7364 106.888 19.2482C107.078 18.7599 107.368 18.3171 107.74 17.9486Z" fill="black"/>
</svg>
