<svg width="48" height="48" viewBox="0 0 48 48" fill="none" xmlns="http://www.w3.org/2000/svg">
<path d="M4 44H44" stroke="#FED47A" stroke-width="2" stroke-linecap="round" stroke-linejoin="round"/>
<path d="M6.2207 44V26C6.2207 22.68 9.2007 20 12.8807 20H35.1007C38.7807 20 41.7607 22.68 41.7607 26V44" stroke="#FED47A" stroke-width="2" stroke-linecap="round" stroke-linejoin="round"/>
<path d="M11.1191 20V14.34C11.1191 11.94 13.2791 10 15.9591 10H32.0591C34.7191 10 36.8791 11.94 36.8791 14.34V20" stroke="#FED47A" stroke-width="2" stroke-linecap="round" stroke-linejoin="round"/>
<path d="M7.06055 27.96L7.80055 27.98C9.28055 28 10.4605 29.2 10.4605 30.68V31.34C10.4605 32.82 11.6605 34.04 13.1605 34.04C14.6405 34.04 15.8605 32.84 15.8605 31.34V30.72C15.8605 29.24 17.0605 28.02 18.5605 28.02C20.0405 28.02 21.2605 29.22 21.2605 30.72V31.34C21.2605 32.82 22.4605 34.04 23.9605 34.04C25.4405 34.04 26.6605 32.84 26.6605 31.34V30.72C26.6605 29.24 27.8605 28.02 29.3605 28.02C30.8405 28.02 32.0605 29.22 32.0605 30.72V31.34C32.0605 32.82 33.2605 34.04 34.7605 34.04C36.2405 34.04 37.4605 32.84 37.4605 31.34V30.72C37.4605 29.24 38.6605 28.02 40.1605 28.02H41.0605" stroke="#FED47A" stroke-width="2" stroke-linecap="round" stroke-linejoin="round"/>
<path d="M16 10V6" stroke="#FED47A" stroke-width="2" stroke-linecap="round" stroke-linejoin="round"/>
<path d="M32 10V6" stroke="#FED47A" stroke-width="2" stroke-linecap="round" stroke-linejoin="round"/>
<path d="M24 10V4" stroke="#FED47A" stroke-width="2" stroke-linecap="round" stroke-linejoin="round"/>
</svg>
