<svg width="40" height="40" viewBox="0 0 40 40" fill="none" xmlns="http://www.w3.org/2000/svg">
<rect width="40" height="40" rx="12" fill="#F7F9FC"/>
<path d="M14.075 21.875H25.925C26.4026 21.875 26.5429 21.9799 26.5881 22.028C26.6442 22.0875 26.75 22.2666 26.75 22.7975V25.8275C26.75 26.3584 26.6442 26.5375 26.5881 26.597C26.5429 26.6451 26.4026 26.75 25.925 26.75H14.075C13.5974 26.75 13.4571 26.6451 13.4119 26.597C13.3558 26.5375 13.25 26.3584 13.25 25.8275V22.7975C13.25 22.2666 13.3558 22.0875 13.4119 22.028C13.4571 21.9799 13.5974 21.875 14.075 21.875Z" stroke="#1E2022" stroke-width="1.5" stroke-linecap="round" stroke-linejoin="round"/>
<path d="M14.075 13.25H25.925C26.4026 13.25 26.5429 13.3549 26.5881 13.403C26.6442 13.4625 26.75 13.6416 26.75 14.1725V17.2025C26.75 17.7334 26.6442 17.9125 26.5881 17.972C26.5429 18.0201 26.4026 18.125 25.925 18.125H14.075C13.5974 18.125 13.4571 18.0201 13.4119 17.972C13.3558 17.9125 13.25 17.7334 13.25 17.2025V14.1725C13.25 13.6416 13.3558 13.4625 13.4119 13.403C13.4571 13.3549 13.5974 13.25 14.075 13.25Z" stroke="#1E2022" stroke-width="1.5" stroke-linecap="round" stroke-linejoin="round"/>
</svg>
