<svg width="52" height="52" viewBox="0 0 52 52" fill="none" xmlns="http://www.w3.org/2000/svg">
<g filter="url(#filter0_d_1_1046)">
<rect x="2" y="1" width="48" height="48" rx="12" fill="white"/>
</g>
<path d="M36.6257 25.7082C36.6257 23.7532 38.2123 22.1665 40.1673 22.1665V20.7498C40.1673 15.0832 38.7507 13.6665 33.084 13.6665H18.9173C13.2507 13.6665 11.834 15.0832 11.834 20.7498V21.4582C13.789 21.4582 15.3757 23.0448 15.3757 24.9998C15.3757 26.9548 13.789 28.5415 11.834 28.5415V29.2498C11.834 34.9165 13.2507 36.3332 18.9173 36.3332H33.084C38.7507 36.3332 40.1673 34.9165 40.1673 29.2498C38.2123 29.2498 36.6257 27.6632 36.6257 25.7082Z" stroke="#FED47A" stroke-width="2" stroke-linecap="round" stroke-linejoin="round"/>
<path d="M21.75 28.896L30.25 20.396" stroke="#FED47A" stroke-width="1.7" stroke-linecap="round" stroke-linejoin="round"/>
<path d="M30.2416 28.8958H30.2543" stroke="#FED47A" stroke-width="2" stroke-linecap="round" stroke-linejoin="round"/>
<path d="M21.7416 21.1043H21.7543" stroke="#FED47A" stroke-width="2" stroke-linecap="round" stroke-linejoin="round"/>
<defs>
<filter id="filter0_d_1_1046" x="0" y="0" width="52" height="52" filterUnits="userSpaceOnUse" color-interpolation-filters="sRGB">
<feFlood flood-opacity="0" result="BackgroundImageFix"/>
<feColorMatrix in="SourceAlpha" type="matrix" values="0 0 0 0 0 0 0 0 0 0 0 0 0 0 0 0 0 0 127 0" result="hardAlpha"/>
<feOffset dy="1"/>
<feGaussianBlur stdDeviation="1"/>
<feComposite in2="hardAlpha" operator="out"/>
<feColorMatrix type="matrix" values="0 0 0 0 0.0833333 0 0 0 0 0.0833333 0 0 0 0 0.0833333 0 0 0 0.2 0"/>
<feBlend mode="normal" in2="BackgroundImageFix" result="effect1_dropShadow_1_1046"/>
<feBlend mode="normal" in="SourceGraphic" in2="effect1_dropShadow_1_1046" result="shape"/>
</filter>
</defs>
</svg>
