<svg width="385" height="340" viewBox="0 0 385 340" fill="none" xmlns="http://www.w3.org/2000/svg">
<rect opacity="0.4" x="0.85" y="339.15" width="338.3" height="383.3" rx="29.15" transform="rotate(-90 0.85 339.15)" fill="white" stroke="#A1A2A2" stroke-width="1.7" stroke-dasharray="10 10"/>
<g opacity="0.2">
<path d="M185 83H201" stroke="black" stroke-width="1.5" stroke-linecap="round" stroke-linejoin="round"/>
<path d="M193 91V75" stroke="black" stroke-width="1.5" stroke-linecap="round" stroke-linejoin="round"/>
<path d="M187 103H199C209 103 213 99 213 89V77C213 67 209 63 199 63H187C177 63 173 67 173 77V89C173 99 177 103 187 103Z" stroke="black" stroke-width="1.5" stroke-linecap="round" stroke-linejoin="round"/>
</g>
<path d="M103 272C103 265.373 108.373 260 115 260H271C277.627 260 283 265.373 283 272V288C283 294.627 277.627 300 271 300H115C108.373 300 103 294.627 103 288V272Z" fill="#F0F3F8"/>
<path d="M171.179 284.126C169.733 284.126 168.589 283.669 167.749 282.754C166.919 281.839 166.503 280.607 166.503 279.058V278.946C166.503 277.462 166.947 276.239 167.833 275.278C168.72 274.317 169.845 273.836 171.207 273.836C172.299 273.836 173.219 274.121 173.965 274.69C174.721 275.259 175.155 276.067 175.267 277.112H174.063C173.923 276.337 173.625 275.759 173.167 275.376C172.719 274.993 172.071 274.802 171.221 274.802C170.185 274.802 169.35 275.18 168.715 275.936C168.081 276.683 167.763 277.681 167.763 278.932V279.044C167.763 280.323 168.067 281.326 168.673 282.054C169.289 282.773 170.134 283.132 171.207 283.132C172.038 283.132 172.715 282.927 173.237 282.516C173.769 282.096 174.101 281.485 174.231 280.682H175.365C175.197 281.811 174.745 282.67 174.007 283.258C173.27 283.837 172.327 284.126 171.179 284.126ZM180.188 283.16C180.916 283.16 181.495 282.908 181.924 282.404C182.363 281.9 182.582 281.233 182.582 280.402V280.304C182.582 279.455 182.363 278.778 181.924 278.274C181.495 277.77 180.916 277.518 180.188 277.518C179.451 277.518 178.867 277.77 178.438 278.274C178.009 278.778 177.794 279.45 177.794 280.29V280.402C177.794 281.251 178.004 281.923 178.424 282.418C178.853 282.913 179.441 283.16 180.188 283.16ZM180.174 284.126C179.138 284.126 178.279 283.776 177.598 283.076C176.926 282.367 176.59 281.475 176.59 280.402V280.29C176.59 279.198 176.926 278.302 177.598 277.602C178.279 276.902 179.143 276.552 180.188 276.552C181.233 276.552 182.092 276.902 182.764 277.602C183.445 278.293 183.786 279.184 183.786 280.276V280.388C183.786 281.489 183.445 282.39 182.764 283.09C182.083 283.781 181.219 284.126 180.174 284.126ZM190.219 278.582C190.219 278.946 190.112 279.282 189.897 279.59C189.692 279.889 189.398 280.075 189.015 280.15C189.491 280.234 189.869 280.416 190.149 280.696C190.429 280.976 190.569 281.345 190.569 281.802V281.844C190.569 282.525 190.317 283.076 189.813 283.496C189.319 283.916 188.642 284.126 187.783 284.126C186.897 284.126 186.201 283.921 185.697 283.51C185.203 283.09 184.937 282.502 184.899 281.746H186.033C186.089 282.213 186.248 282.567 186.509 282.81C186.78 283.043 187.205 283.16 187.783 283.16C188.829 283.16 189.351 282.745 189.351 281.914V281.872C189.351 281.461 189.225 281.163 188.973 280.976C188.731 280.789 188.353 280.696 187.839 280.696H186.733V279.772H187.643C188.129 279.772 188.474 279.683 188.679 279.506C188.894 279.329 189.001 279.039 189.001 278.638V278.596C189.001 277.877 188.581 277.518 187.741 277.518C186.929 277.518 186.444 277.901 186.285 278.666H185.165C185.249 277.929 185.529 277.392 186.005 277.056C186.491 276.72 187.093 276.552 187.811 276.552C188.502 276.552 189.076 276.729 189.533 277.084C189.991 277.429 190.219 277.915 190.219 278.54V278.582ZM193.847 281.172C193.744 282.031 193.586 282.647 193.371 283.02H196.801V277.63H194.113C194.066 278.769 193.978 279.949 193.847 281.172ZM192.391 285.778H191.453V283.02H191.971C192.232 282.955 192.414 282.768 192.517 282.46C192.62 282.143 192.708 281.69 192.783 281.102C192.867 280.346 192.946 279.394 193.021 278.246C193.058 277.733 193.086 277.21 193.105 276.678H197.935V283.02H199.055V285.778H198.117L198.033 284H192.475L192.391 285.778ZM202.431 284.126C201.712 284.126 201.124 283.949 200.667 283.594C200.219 283.23 199.995 282.689 199.995 281.97C199.995 281.569 200.093 281.219 200.289 280.92C200.494 280.612 200.774 280.374 201.129 280.206C201.484 280.029 201.871 279.903 202.291 279.828C202.711 279.744 203.168 279.702 203.663 279.702H204.713V279.17C204.713 278.582 204.592 278.162 204.349 277.91C204.106 277.649 203.705 277.518 203.145 277.518C202.137 277.518 201.577 277.957 201.465 278.834H200.303C200.378 278.05 200.681 277.476 201.213 277.112C201.754 276.739 202.417 276.552 203.201 276.552C204.984 276.552 205.875 277.425 205.875 279.17V284H204.713V283.076C204.153 283.776 203.392 284.126 202.431 284.126ZM202.543 283.202C203.178 283.202 203.696 283.048 204.097 282.74C204.508 282.423 204.713 281.989 204.713 281.438V280.528H203.705C202.006 280.528 201.157 281.009 201.157 281.97C201.157 282.791 201.619 283.202 202.543 283.202ZM213.006 277.658H210.64V284H209.478V277.658H207.112V276.678H213.006V277.658ZM214.609 276.678H215.771V279.24H217.073C217.894 279.24 218.566 279.441 219.089 279.842C219.611 280.243 219.873 280.841 219.873 281.634V281.676C219.873 282.479 219.611 283.067 219.089 283.44C218.575 283.813 217.903 284 217.073 284H214.609V276.678ZM217.143 283.09C217.703 283.09 218.104 282.973 218.347 282.74C218.589 282.497 218.711 282.143 218.711 281.676V281.634C218.711 281.13 218.585 280.761 218.333 280.528C218.09 280.285 217.693 280.164 217.143 280.164H215.771V283.09H217.143Z" fill="#1E2022"/>
<path opacity="0.4" d="M97.7501 145.7H99.4901V152.18H107.01V145.7H108.75V160H107.01V153.64H99.4901V160H97.7501V145.7ZM116.599 158.8C117.639 158.8 118.466 158.44 119.079 157.72C119.706 157 120.019 156.047 120.019 154.86V154.72C120.019 153.507 119.706 152.54 119.079 151.82C118.466 151.1 117.639 150.74 116.599 150.74C115.546 150.74 114.713 151.1 114.099 151.82C113.486 152.54 113.179 153.5 113.179 154.7V154.86C113.179 156.073 113.479 157.033 114.079 157.74C114.693 158.447 115.533 158.8 116.599 158.8ZM116.579 160.18C115.099 160.18 113.873 159.68 112.899 158.68C111.939 157.667 111.459 156.393 111.459 154.86V154.7C111.459 153.14 111.939 151.86 112.899 150.86C113.873 149.86 115.106 149.36 116.599 149.36C118.093 149.36 119.319 149.86 120.279 150.86C121.253 151.847 121.739 153.12 121.739 154.68V154.84C121.739 156.413 121.253 157.7 120.279 158.7C119.306 159.687 118.073 160.18 116.579 160.18ZM124.19 149.54H127.85C130.303 149.54 131.53 150.427 131.53 152.2V152.26C131.53 152.767 131.39 153.233 131.11 153.66C130.83 154.073 130.41 154.353 129.85 154.5C131.303 154.82 132.03 155.607 132.03 156.86V156.92C132.03 157.933 131.696 158.7 131.03 159.22C130.376 159.74 129.463 160 128.29 160H124.19V149.54ZM125.85 150.86V153.96H127.85C128.543 153.96 129.036 153.833 129.33 153.58C129.636 153.327 129.79 152.913 129.79 152.34V152.28C129.79 151.747 129.63 151.38 129.31 151.18C129.003 150.967 128.51 150.86 127.83 150.86H125.85ZM125.85 155.28V158.68H128.13C128.863 158.68 129.403 158.553 129.75 158.3C130.11 158.033 130.29 157.607 130.29 157.02V156.96C130.29 156.373 130.11 155.947 129.75 155.68C129.403 155.413 128.863 155.28 128.13 155.28H125.85ZM139.158 158.8C140.198 158.8 141.025 158.44 141.638 157.72C142.265 157 142.578 156.047 142.578 154.86V154.72C142.578 153.507 142.265 152.54 141.638 151.82C141.025 151.1 140.198 150.74 139.158 150.74C138.105 150.74 137.271 151.1 136.658 151.82C136.045 152.54 135.738 153.5 135.738 154.7V154.86C135.738 156.073 136.038 157.033 136.638 157.74C137.251 158.447 138.091 158.8 139.158 158.8ZM139.138 160.18C137.658 160.18 136.431 159.68 135.458 158.68C134.498 157.667 134.018 156.393 134.018 154.86V154.7C134.018 153.14 134.498 151.86 135.458 150.86C136.431 149.86 137.665 149.36 139.158 149.36C140.651 149.36 141.878 149.86 142.838 150.86C143.811 151.847 144.298 153.12 144.298 154.68V154.84C144.298 156.413 143.811 157.7 142.838 158.7C141.865 159.687 140.631 160.18 139.138 160.18ZM151.148 160.18C149.655 160.18 148.435 159.693 147.488 158.72C146.555 157.747 146.088 156.467 146.088 154.88V154.72C146.088 153.147 146.542 151.86 147.448 150.86C148.368 149.86 149.548 149.36 150.988 149.36C152.322 149.36 153.435 149.793 154.328 150.66C155.235 151.513 155.688 152.813 155.688 154.56V155.1H147.808C147.888 157.567 149.008 158.8 151.168 158.8C152.808 158.8 153.735 158.193 153.948 156.98H155.608C155.422 158.02 154.935 158.813 154.148 159.36C153.362 159.907 152.362 160.18 151.148 160.18ZM153.988 153.76C153.842 151.747 152.842 150.74 150.988 150.74C150.148 150.74 149.455 151.007 148.908 151.54C148.362 152.073 148.015 152.813 147.868 153.76H153.988ZM166.449 158.92L162.349 149.54H164.129L167.329 157.04L170.229 149.54H171.929L166.149 163.64H164.469L166.449 158.92ZM173.994 149.54H177.654C180.108 149.54 181.334 150.427 181.334 152.2V152.26C181.334 152.767 181.194 153.233 180.914 153.66C180.634 154.073 180.214 154.353 179.654 154.5C181.108 154.82 181.834 155.607 181.834 156.86V156.92C181.834 157.933 181.501 158.7 180.834 159.22C180.181 159.74 179.268 160 178.094 160H173.994V149.54ZM175.654 150.86V153.96H177.654C178.348 153.96 178.841 153.833 179.134 153.58C179.441 153.327 179.594 152.913 179.594 152.34V152.28C179.594 151.747 179.434 151.38 179.114 151.18C178.808 150.967 178.314 150.86 177.634 150.86H175.654ZM175.654 155.28V158.68H177.934C178.668 158.68 179.208 158.553 179.554 158.3C179.914 158.033 180.094 157.607 180.094 157.02V156.96C180.094 156.373 179.914 155.947 179.554 155.68C179.208 155.413 178.668 155.28 177.934 155.28H175.654ZM188.883 160.18C187.389 160.18 186.169 159.693 185.223 158.72C184.289 157.747 183.823 156.467 183.823 154.88V154.72C183.823 153.147 184.276 151.86 185.183 150.86C186.103 149.86 187.283 149.36 188.723 149.36C190.056 149.36 191.169 149.793 192.063 150.66C192.969 151.513 193.423 152.813 193.423 154.56V155.1H185.543C185.623 157.567 186.743 158.8 188.903 158.8C190.543 158.8 191.469 158.193 191.683 156.98H193.343C193.156 158.02 192.669 158.813 191.883 159.36C191.096 159.907 190.096 160.18 188.883 160.18ZM191.723 153.76C191.576 151.747 190.576 150.74 188.723 150.74C187.883 150.74 187.189 151.007 186.643 151.54C186.096 152.073 185.749 152.813 185.603 153.76H191.723ZM197.89 155.96C197.743 157.187 197.517 158.067 197.21 158.6H202.11V150.9H198.27C198.203 152.527 198.077 154.213 197.89 155.96ZM195.81 162.54H194.47V158.6H195.21C195.583 158.507 195.843 158.24 195.99 157.8C196.137 157.347 196.263 156.7 196.37 155.86C196.49 154.78 196.603 153.42 196.71 151.78C196.763 151.047 196.803 150.3 196.83 149.54H203.73V158.6H205.33V162.54H203.99L203.87 160H195.93L195.81 162.54ZM211.795 158.8C212.835 158.8 213.661 158.44 214.275 157.72C214.901 157 215.215 156.047 215.215 154.86V154.72C215.215 153.507 214.901 152.54 214.275 151.82C213.661 151.1 212.835 150.74 211.795 150.74C210.741 150.74 209.908 151.1 209.295 151.82C208.681 152.54 208.375 153.5 208.375 154.7V154.86C208.375 156.073 208.675 157.033 209.275 157.74C209.888 158.447 210.728 158.8 211.795 158.8ZM211.775 160.18C210.295 160.18 209.068 159.68 208.095 158.68C207.135 157.667 206.655 156.393 206.655 154.86V154.7C206.655 153.14 207.135 151.86 208.095 150.86C209.068 149.86 210.301 149.36 211.795 149.36C213.288 149.36 214.515 149.86 215.475 150.86C216.448 151.847 216.935 153.12 216.935 154.68V154.84C216.935 156.413 216.448 157.7 215.475 158.7C214.501 159.687 213.268 160.18 211.775 160.18ZM220.785 151.18V160H219.405V149.54H221.745L224.725 157.4L227.785 149.54H230.065V160H228.425V151.18L224.965 160H224.205L220.785 151.18ZM235.448 155.96C235.328 157.4 235.074 158.453 234.688 159.12C234.301 159.773 233.694 160.1 232.868 160.1C232.694 160.1 232.514 160.087 232.328 160.06L232.168 160V158.42L232.308 158.46C232.441 158.487 232.581 158.5 232.728 158.5C232.941 158.5 233.114 158.44 233.248 158.32C233.394 158.187 233.508 157.98 233.588 157.7C233.681 157.42 233.748 157.16 233.788 156.92C233.828 156.667 233.874 156.313 233.928 155.86C233.981 155.38 234.061 154.02 234.168 151.78L234.228 149.54H241.128V160H239.468V150.94H235.708C235.588 153.82 235.501 155.493 235.448 155.96ZM248.883 160.18C247.389 160.18 246.169 159.693 245.223 158.72C244.289 157.747 243.823 156.467 243.823 154.88V154.72C243.823 153.147 244.276 151.86 245.183 150.86C246.103 149.86 247.283 149.36 248.723 149.36C250.056 149.36 251.169 149.793 252.063 150.66C252.969 151.513 253.423 152.813 253.423 154.56V155.1H245.543C245.623 157.567 246.743 158.8 248.903 158.8C250.543 158.8 251.469 158.193 251.683 156.98H253.343C253.156 158.02 252.669 158.813 251.883 159.36C251.096 159.907 250.096 160.18 248.883 160.18ZM251.723 153.76C251.576 151.747 250.576 150.74 248.723 150.74C247.883 150.74 247.189 151.007 246.643 151.54C246.096 152.073 245.749 152.813 245.603 153.76H251.723ZM262.65 155.34H257.51V160H255.85V149.54H257.51V153.94H262.65V149.54H264.31V160H262.65V155.34ZM267.666 160V149.54H269.326V157.6L274.666 149.54H276.326V160H274.666V151.94L269.326 160H267.666ZM283.883 160.18C282.389 160.18 281.169 159.693 280.223 158.72C279.289 157.747 278.823 156.467 278.823 154.88V154.72C278.823 153.147 279.276 151.86 280.183 150.86C281.103 149.86 282.283 149.36 283.723 149.36C285.056 149.36 286.169 149.793 287.063 150.66C287.969 151.513 288.423 152.813 288.423 154.56V155.1H280.543C280.623 157.567 281.743 158.8 283.903 158.8C285.543 158.8 286.469 158.193 286.683 156.98H288.343C288.156 158.02 287.669 158.813 286.883 159.36C286.096 159.907 285.096 160.18 283.883 160.18ZM286.723 153.76C286.576 151.747 285.576 150.74 283.723 150.74C282.883 150.74 282.189 151.007 281.643 151.54C281.096 152.073 280.749 152.813 280.603 153.76H286.723ZM138.554 187.96C138.407 189.187 138.181 190.067 137.874 190.6H142.774V182.9H138.934C138.867 184.527 138.741 186.213 138.554 187.96ZM136.474 194.54H135.134V190.6H135.874C136.247 190.507 136.507 190.24 136.654 189.8C136.801 189.347 136.927 188.7 137.034 187.86C137.154 186.78 137.267 185.42 137.374 183.78C137.427 183.047 137.467 182.3 137.494 181.54H144.394V190.6H145.994V194.54H144.654L144.534 192H136.594L136.474 194.54ZM150.369 187.96C150.249 189.4 149.996 190.453 149.609 191.12C149.223 191.773 148.616 192.1 147.789 192.1C147.616 192.1 147.436 192.087 147.249 192.06L147.089 192V190.42L147.229 190.46C147.363 190.487 147.503 190.5 147.649 190.5C147.863 190.5 148.036 190.44 148.169 190.32C148.316 190.187 148.429 189.98 148.509 189.7C148.603 189.42 148.669 189.16 148.709 188.92C148.749 188.667 148.796 188.313 148.849 187.86C148.903 187.38 148.983 186.02 149.089 183.78L149.149 181.54H156.049V192H154.389V182.94H150.629C150.509 185.82 150.423 187.493 150.369 187.96ZM162.885 182.86C161.391 182.86 160.645 183.493 160.645 184.76V184.82C160.645 185.42 160.818 185.873 161.165 186.18C161.511 186.487 162.085 186.64 162.885 186.64H164.845V182.86H162.885ZM160.125 192H158.225L161.405 187.62C159.791 187.287 158.985 186.353 158.985 184.82V184.76C158.985 183.667 159.358 182.86 160.105 182.34C160.851 181.807 161.811 181.54 162.985 181.54H166.505V192H164.845V187.9H163.045L160.125 192ZM176.826 186.66V192H175.166V181.54H176.826V186.42L181.166 181.54H183.106L178.626 186.46L183.486 192H181.466L176.826 186.66ZM187.479 187.96C187.359 189.4 187.105 190.453 186.719 191.12C186.332 191.773 185.725 192.1 184.899 192.1C184.725 192.1 184.545 192.087 184.359 192.06L184.199 192V190.42L184.339 190.46C184.472 190.487 184.612 190.5 184.759 190.5C184.972 190.5 185.145 190.44 185.279 190.32C185.425 190.187 185.539 189.98 185.619 189.7C185.712 189.42 185.779 189.16 185.819 188.92C185.859 188.667 185.905 188.313 185.959 187.86C186.012 187.38 186.092 186.02 186.199 183.78L186.259 181.54H193.159V192H191.499V182.94H187.739C187.619 185.82 187.532 187.493 187.479 187.96ZM196.514 192V181.54H198.174V189.6L203.514 181.54H205.174V192H203.514V183.94L198.174 192H196.514ZM212.73 192.18C211.237 192.18 210.017 191.693 209.07 190.72C208.137 189.747 207.67 188.467 207.67 186.88V186.72C207.67 185.147 208.124 183.86 209.03 182.86C209.95 181.86 211.13 181.36 212.57 181.36C213.904 181.36 215.017 181.793 215.91 182.66C216.817 183.513 217.27 184.813 217.27 186.56V187.1H209.39C209.47 189.567 210.59 190.8 212.75 190.8C214.39 190.8 215.317 190.193 215.53 188.98H217.19C217.004 190.02 216.517 190.813 215.73 191.36C214.944 191.907 213.944 192.18 212.73 192.18ZM215.57 185.76C215.424 183.747 214.424 182.74 212.57 182.74C211.73 182.74 211.037 183.007 210.49 183.54C209.944 184.073 209.597 184.813 209.45 185.76H215.57ZM226.498 187.34H221.358V192H219.698V181.54H221.358V185.94H226.498V181.54H228.158V192H226.498V187.34ZM238.854 182.94H235.474V192H233.814V182.94H230.434V181.54H238.854V182.94ZM243.785 192.18C242.759 192.18 241.919 191.927 241.265 191.42C240.625 190.9 240.305 190.127 240.305 189.1C240.305 188.527 240.445 188.027 240.725 187.6C241.019 187.16 241.419 186.82 241.925 186.58C242.432 186.327 242.985 186.147 243.585 186.04C244.185 185.92 244.839 185.86 245.545 185.86H247.045V185.1C247.045 184.26 246.872 183.66 246.525 183.3C246.179 182.927 245.605 182.74 244.805 182.74C243.365 182.74 242.565 183.367 242.405 184.62H240.745C240.852 183.5 241.285 182.68 242.045 182.16C242.819 181.627 243.765 181.36 244.885 181.36C247.432 181.36 248.705 182.607 248.705 185.1V192H247.045V190.68C246.245 191.68 245.159 192.18 243.785 192.18ZM243.945 190.86C244.852 190.86 245.592 190.64 246.165 190.2C246.752 189.747 247.045 189.127 247.045 188.34V187.04H245.605C243.179 187.04 241.965 187.727 241.965 189.1C241.965 190.273 242.625 190.86 243.945 190.86Z" fill="#1E2022"/>
</svg>
