<svg width="180" height="52" viewBox="0 0 180 52" fill="none" xmlns="http://www.w3.org/2000/svg">
<rect width="180" height="52" fill="white"/>
<rect y="6" width="40" height="40" rx="12" fill="#FED47A"/>
<rect width="3.62342" height="3.62342" rx="0.744541" transform="matrix(0.866044 0.499967 -0.866044 0.499967 11.9805 16.4702)" fill="#1E2022"/>
<rect width="2.89874" height="2.89874" rx="0.744541" transform="matrix(0.866044 0.499967 -0.866044 0.499967 16.0605 14.1152)" fill="#1E2022"/>
<rect width="2.17405" height="2.17405" rx="0.744541" transform="matrix(0.866044 0.499967 -0.866044 0.499967 20.1396 11.7603)" fill="#1E2022"/>
<rect width="3.62342" height="3.62342" rx="0.744541" transform="matrix(0.866044 0.499967 -0.866044 0.499967 16.0605 18.8254)" fill="#1E2022"/>
<rect width="3.62342" height="3.62342" rx="0.744541" transform="matrix(0.866044 0.499967 -0.866044 0.499967 20.1396 16.4702)" fill="#1E2022"/>
<rect width="2.89874" height="2.89874" rx="0.744541" transform="matrix(0.866044 0.499967 -0.866044 0.499967 24.2192 14.1152)" fill="#1E2022"/>
<rect width="3.62342" height="3.62342" rx="0.744541" transform="matrix(0.866044 0.499967 -0.866044 0.499967 20.1396 21.1804)" fill="#1E2022"/>
<rect width="3.62342" height="3.62342" rx="0.744541" transform="matrix(0.866044 0.499967 -0.866044 0.499967 24.2192 18.8254)" fill="#1E2022"/>
<rect width="3.62342" height="3.62342" rx="0.744541" transform="matrix(0.866044 0.499967 -0.866044 0.499967 28.2983 16.4702)" fill="#1E2022"/>
<rect width="13.0443" height="13.0443" rx="1.48908" transform="matrix(3.76314e-05 -1 0.866007 -0.500033 21.0547 39.16)" fill="#1E2022"/>
<rect width="13.0443" height="13.0443" rx="1.48908" transform="matrix(-3.76314e-05 -1 -0.866007 -0.500033 19.314 39.1602)" fill="#1E2022"/>
<mask id="path-13-outside-1_3057_1509" maskUnits="userSpaceOnUse" x="47.0459" y="8.8728" width="81" height="35" fill="black">
<rect fill="white" x="47.0459" y="8.8728" width="81" height="35"/>
<path d="M64.5789 43.3678C64.0729 43.3678 63.6549 43.2028 63.3249 42.8728C63.0169 42.5648 62.8629 42.1688 62.8629 41.6848V32.7748C62.1149 33.6988 61.1909 34.4358 60.0909 34.9858C58.9909 35.5138 57.7919 35.7778 56.4939 35.7778C54.8879 35.7778 53.4469 35.3818 52.1709 34.5898C50.8949 33.7758 49.8829 32.6868 49.1349 31.3228C48.4089 29.9368 48.0459 28.3748 48.0459 26.6368C48.0459 24.8988 48.4419 23.3368 49.2339 21.9508C50.0479 20.5648 51.1369 19.4758 52.5009 18.6838C53.8869 17.8698 55.4379 17.4628 57.1539 17.4628C58.8699 17.4628 60.4099 17.8698 61.7739 18.6838C63.1379 19.4758 64.2159 20.5648 65.0079 21.9508C65.8219 23.3368 66.2289 24.8988 66.2289 26.6368V41.6848C66.2289 42.1688 66.0749 42.5648 65.7669 42.8728C65.4589 43.2028 65.0629 43.3678 64.5789 43.3678ZM57.1539 32.8078C58.2759 32.8078 59.2769 32.5438 60.1569 32.0158C61.0369 31.4658 61.7299 30.7288 62.2359 29.8048C62.7419 28.8588 62.9949 27.8028 62.9949 26.6368C62.9949 25.4488 62.7419 24.3928 62.2359 23.4688C61.7299 22.5228 61.0369 21.7858 60.1569 21.2578C59.2769 20.7078 58.2759 20.4328 57.1539 20.4328C56.0539 20.4328 55.0529 20.7078 54.1509 21.2578C53.2709 21.7858 52.5669 22.5228 52.0389 23.4688C51.5329 24.3928 51.2799 25.4488 51.2799 26.6368C51.2799 27.8028 51.5329 28.8588 52.0389 29.8048C52.5669 30.7288 53.2709 31.4658 54.1509 32.0158C55.0529 32.5438 56.0539 32.8078 57.1539 32.8078Z"/>
<path d="M77.882 35.7778C76.1 35.7778 74.527 35.3928 73.163 34.6228C71.799 33.8308 70.721 32.7528 69.929 31.3888C69.159 30.0028 68.774 28.4188 68.774 26.6368C68.774 24.8328 69.159 23.2488 69.929 21.8848C70.721 20.4988 71.799 19.4208 73.163 18.6508C74.527 17.8588 76.1 17.4628 77.882 17.4628C79.642 17.4628 81.204 17.8588 82.568 18.6508C83.932 19.4208 84.999 20.4988 85.769 21.8848C86.561 23.2488 86.957 24.8328 86.957 26.6368C86.957 28.4188 86.572 30.0028 85.802 31.3888C85.032 32.7528 83.965 33.8308 82.601 34.6228C81.237 35.3928 79.664 35.7778 77.882 35.7778ZM77.882 32.8078C79.026 32.8078 80.038 32.5438 80.918 32.0158C81.798 31.4878 82.48 30.7618 82.964 29.8378C83.47 28.9138 83.723 27.8468 83.723 26.6368C83.723 25.4268 83.47 24.3598 82.964 23.4358C82.48 22.4898 81.798 21.7528 80.918 21.2248C80.038 20.6968 79.026 20.4328 77.882 20.4328C76.738 20.4328 75.726 20.6968 74.846 21.2248C73.966 21.7528 73.273 22.4898 72.767 23.4358C72.261 24.3598 72.008 25.4268 72.008 26.6368C72.008 27.8468 72.261 28.9138 72.767 29.8378C73.273 30.7618 73.966 31.4878 74.846 32.0158C75.726 32.5438 76.738 32.8078 77.882 32.8078Z"/>
<path d="M97.6756 35.7778C95.8936 35.7778 94.3206 35.3928 92.9566 34.6228C91.5926 33.8308 90.5146 32.7528 89.7226 31.3888C88.9526 30.0028 88.5676 28.4188 88.5676 26.6368C88.5676 24.8328 88.9526 23.2488 89.7226 21.8848C90.5146 20.4988 91.5926 19.4208 92.9566 18.6508C94.3206 17.8588 95.8936 17.4628 97.6756 17.4628C99.4356 17.4628 100.998 17.8588 102.362 18.6508C103.726 19.4208 104.793 20.4988 105.563 21.8848C106.355 23.2488 106.751 24.8328 106.751 26.6368C106.751 28.4188 106.366 30.0028 105.596 31.3888C104.826 32.7528 103.759 33.8308 102.395 34.6228C101.031 35.3928 99.4576 35.7778 97.6756 35.7778ZM97.6756 32.8078C98.8196 32.8078 99.8316 32.5438 100.712 32.0158C101.592 31.4878 102.274 30.7618 102.758 29.8378C103.264 28.9138 103.517 27.8468 103.517 26.6368C103.517 25.4268 103.264 24.3598 102.758 23.4358C102.274 22.4898 101.592 21.7528 100.712 21.2248C99.8316 20.6968 98.8196 20.4328 97.6756 20.4328C96.5316 20.4328 95.5196 20.6968 94.6396 21.2248C93.7596 21.7528 93.0666 22.4898 92.5606 23.4358C92.0546 24.3598 91.8016 25.4268 91.8016 26.6368C91.8016 27.8468 92.0546 28.9138 92.5606 29.8378C93.0666 30.7618 93.7596 31.4878 94.6396 32.0158C95.5196 32.5438 96.5316 32.8078 97.6756 32.8078Z"/>
<path d="M118.36 35.7778C116.644 35.7778 115.104 35.3818 113.74 34.5898C112.376 33.7758 111.298 32.6758 110.506 31.2898C109.714 29.9038 109.307 28.3418 109.285 26.6038V11.5558C109.285 11.0498 109.439 10.6428 109.747 10.3348C110.077 10.0268 110.484 9.8728 110.968 9.8728C111.474 9.8728 111.881 10.0268 112.189 10.3348C112.497 10.6428 112.651 11.0498 112.651 11.5558V20.4658C113.421 19.5418 114.345 18.8158 115.423 18.2878C116.523 17.7378 117.722 17.4628 119.02 17.4628C120.626 17.4628 122.067 17.8698 123.343 18.6838C124.619 19.4758 125.62 20.5648 126.346 21.9508C127.094 23.3148 127.468 24.8658 127.468 26.6038C127.468 28.3418 127.061 29.9038 126.247 31.2898C125.455 32.6758 124.377 33.7758 123.013 34.5898C121.649 35.3818 120.098 35.7778 118.36 35.7778ZM118.36 32.8078C119.482 32.8078 120.483 32.5438 121.363 32.0158C122.243 31.4658 122.936 30.7178 123.442 29.7718C123.97 28.8258 124.234 27.7698 124.234 26.6038C124.234 25.4158 123.97 24.3598 123.442 23.4358C122.936 22.5118 122.243 21.7858 121.363 21.2578C120.483 20.7078 119.482 20.4328 118.36 20.4328C117.26 20.4328 116.259 20.7078 115.357 21.2578C114.477 21.7858 113.784 22.5118 113.278 23.4358C112.772 24.3598 112.519 25.4158 112.519 26.6038C112.519 27.7698 112.772 28.8258 113.278 29.7718C113.784 30.7178 114.477 31.4658 115.357 32.0158C116.259 32.5438 117.26 32.8078 118.36 32.8078Z"/>
</mask>
<path d="M64.5789 43.3678C64.0729 43.3678 63.6549 43.2028 63.3249 42.8728C63.0169 42.5648 62.8629 42.1688 62.8629 41.6848V32.7748C62.1149 33.6988 61.1909 34.4358 60.0909 34.9858C58.9909 35.5138 57.7919 35.7778 56.4939 35.7778C54.8879 35.7778 53.4469 35.3818 52.1709 34.5898C50.8949 33.7758 49.8829 32.6868 49.1349 31.3228C48.4089 29.9368 48.0459 28.3748 48.0459 26.6368C48.0459 24.8988 48.4419 23.3368 49.2339 21.9508C50.0479 20.5648 51.1369 19.4758 52.5009 18.6838C53.8869 17.8698 55.4379 17.4628 57.1539 17.4628C58.8699 17.4628 60.4099 17.8698 61.7739 18.6838C63.1379 19.4758 64.2159 20.5648 65.0079 21.9508C65.8219 23.3368 66.2289 24.8988 66.2289 26.6368V41.6848C66.2289 42.1688 66.0749 42.5648 65.7669 42.8728C65.4589 43.2028 65.0629 43.3678 64.5789 43.3678ZM57.1539 32.8078C58.2759 32.8078 59.2769 32.5438 60.1569 32.0158C61.0369 31.4658 61.7299 30.7288 62.2359 29.8048C62.7419 28.8588 62.9949 27.8028 62.9949 26.6368C62.9949 25.4488 62.7419 24.3928 62.2359 23.4688C61.7299 22.5228 61.0369 21.7858 60.1569 21.2578C59.2769 20.7078 58.2759 20.4328 57.1539 20.4328C56.0539 20.4328 55.0529 20.7078 54.1509 21.2578C53.2709 21.7858 52.5669 22.5228 52.0389 23.4688C51.5329 24.3928 51.2799 25.4488 51.2799 26.6368C51.2799 27.8028 51.5329 28.8588 52.0389 29.8048C52.5669 30.7288 53.2709 31.4658 54.1509 32.0158C55.0529 32.5438 56.0539 32.8078 57.1539 32.8078Z" fill="#1E2022"/>
<path d="M77.882 35.7778C76.1 35.7778 74.527 35.3928 73.163 34.6228C71.799 33.8308 70.721 32.7528 69.929 31.3888C69.159 30.0028 68.774 28.4188 68.774 26.6368C68.774 24.8328 69.159 23.2488 69.929 21.8848C70.721 20.4988 71.799 19.4208 73.163 18.6508C74.527 17.8588 76.1 17.4628 77.882 17.4628C79.642 17.4628 81.204 17.8588 82.568 18.6508C83.932 19.4208 84.999 20.4988 85.769 21.8848C86.561 23.2488 86.957 24.8328 86.957 26.6368C86.957 28.4188 86.572 30.0028 85.802 31.3888C85.032 32.7528 83.965 33.8308 82.601 34.6228C81.237 35.3928 79.664 35.7778 77.882 35.7778ZM77.882 32.8078C79.026 32.8078 80.038 32.5438 80.918 32.0158C81.798 31.4878 82.48 30.7618 82.964 29.8378C83.47 28.9138 83.723 27.8468 83.723 26.6368C83.723 25.4268 83.47 24.3598 82.964 23.4358C82.48 22.4898 81.798 21.7528 80.918 21.2248C80.038 20.6968 79.026 20.4328 77.882 20.4328C76.738 20.4328 75.726 20.6968 74.846 21.2248C73.966 21.7528 73.273 22.4898 72.767 23.4358C72.261 24.3598 72.008 25.4268 72.008 26.6368C72.008 27.8468 72.261 28.9138 72.767 29.8378C73.273 30.7618 73.966 31.4878 74.846 32.0158C75.726 32.5438 76.738 32.8078 77.882 32.8078Z" fill="#1E2022"/>
<path d="M97.6756 35.7778C95.8936 35.7778 94.3206 35.3928 92.9566 34.6228C91.5926 33.8308 90.5146 32.7528 89.7226 31.3888C88.9526 30.0028 88.5676 28.4188 88.5676 26.6368C88.5676 24.8328 88.9526 23.2488 89.7226 21.8848C90.5146 20.4988 91.5926 19.4208 92.9566 18.6508C94.3206 17.8588 95.8936 17.4628 97.6756 17.4628C99.4356 17.4628 100.998 17.8588 102.362 18.6508C103.726 19.4208 104.793 20.4988 105.563 21.8848C106.355 23.2488 106.751 24.8328 106.751 26.6368C106.751 28.4188 106.366 30.0028 105.596 31.3888C104.826 32.7528 103.759 33.8308 102.395 34.6228C101.031 35.3928 99.4576 35.7778 97.6756 35.7778ZM97.6756 32.8078C98.8196 32.8078 99.8316 32.5438 100.712 32.0158C101.592 31.4878 102.274 30.7618 102.758 29.8378C103.264 28.9138 103.517 27.8468 103.517 26.6368C103.517 25.4268 103.264 24.3598 102.758 23.4358C102.274 22.4898 101.592 21.7528 100.712 21.2248C99.8316 20.6968 98.8196 20.4328 97.6756 20.4328C96.5316 20.4328 95.5196 20.6968 94.6396 21.2248C93.7596 21.7528 93.0666 22.4898 92.5606 23.4358C92.0546 24.3598 91.8016 25.4268 91.8016 26.6368C91.8016 27.8468 92.0546 28.9138 92.5606 29.8378C93.0666 30.7618 93.7596 31.4878 94.6396 32.0158C95.5196 32.5438 96.5316 32.8078 97.6756 32.8078Z" fill="#1E2022"/>
<path d="M118.36 35.7778C116.644 35.7778 115.104 35.3818 113.74 34.5898C112.376 33.7758 111.298 32.6758 110.506 31.2898C109.714 29.9038 109.307 28.3418 109.285 26.6038V11.5558C109.285 11.0498 109.439 10.6428 109.747 10.3348C110.077 10.0268 110.484 9.8728 110.968 9.8728C111.474 9.8728 111.881 10.0268 112.189 10.3348C112.497 10.6428 112.651 11.0498 112.651 11.5558V20.4658C113.421 19.5418 114.345 18.8158 115.423 18.2878C116.523 17.7378 117.722 17.4628 119.02 17.4628C120.626 17.4628 122.067 17.8698 123.343 18.6838C124.619 19.4758 125.62 20.5648 126.346 21.9508C127.094 23.3148 127.468 24.8658 127.468 26.6038C127.468 28.3418 127.061 29.9038 126.247 31.2898C125.455 32.6758 124.377 33.7758 123.013 34.5898C121.649 35.3818 120.098 35.7778 118.36 35.7778ZM118.36 32.8078C119.482 32.8078 120.483 32.5438 121.363 32.0158C122.243 31.4658 122.936 30.7178 123.442 29.7718C123.97 28.8258 124.234 27.7698 124.234 26.6038C124.234 25.4158 123.97 24.3598 123.442 23.4358C122.936 22.5118 122.243 21.7858 121.363 21.2578C120.483 20.7078 119.482 20.4328 118.36 20.4328C117.26 20.4328 116.259 20.7078 115.357 21.2578C114.477 21.7858 113.784 22.5118 113.278 23.4358C112.772 24.3598 112.519 25.4158 112.519 26.6038C112.519 27.7698 112.772 28.8258 113.278 29.7718C113.784 30.7178 114.477 31.4658 115.357 32.0158C116.259 32.5438 117.26 32.8078 118.36 32.8078Z" fill="#1E2022"/>
<path d="M64.5789 43.3678C64.0729 43.3678 63.6549 43.2028 63.3249 42.8728C63.0169 42.5648 62.8629 42.1688 62.8629 41.6848V32.7748C62.1149 33.6988 61.1909 34.4358 60.0909 34.9858C58.9909 35.5138 57.7919 35.7778 56.4939 35.7778C54.8879 35.7778 53.4469 35.3818 52.1709 34.5898C50.8949 33.7758 49.8829 32.6868 49.1349 31.3228C48.4089 29.9368 48.0459 28.3748 48.0459 26.6368C48.0459 24.8988 48.4419 23.3368 49.2339 21.9508C50.0479 20.5648 51.1369 19.4758 52.5009 18.6838C53.8869 17.8698 55.4379 17.4628 57.1539 17.4628C58.8699 17.4628 60.4099 17.8698 61.7739 18.6838C63.1379 19.4758 64.2159 20.5648 65.0079 21.9508C65.8219 23.3368 66.2289 24.8988 66.2289 26.6368V41.6848C66.2289 42.1688 66.0749 42.5648 65.7669 42.8728C65.4589 43.2028 65.0629 43.3678 64.5789 43.3678ZM57.1539 32.8078C58.2759 32.8078 59.2769 32.5438 60.1569 32.0158C61.0369 31.4658 61.7299 30.7288 62.2359 29.8048C62.7419 28.8588 62.9949 27.8028 62.9949 26.6368C62.9949 25.4488 62.7419 24.3928 62.2359 23.4688C61.7299 22.5228 61.0369 21.7858 60.1569 21.2578C59.2769 20.7078 58.2759 20.4328 57.1539 20.4328C56.0539 20.4328 55.0529 20.7078 54.1509 21.2578C53.2709 21.7858 52.5669 22.5228 52.0389 23.4688C51.5329 24.3928 51.2799 25.4488 51.2799 26.6368C51.2799 27.8028 51.5329 28.8588 52.0389 29.8048C52.5669 30.7288 53.2709 31.4658 54.1509 32.0158C55.0529 32.5438 56.0539 32.8078 57.1539 32.8078Z" stroke="#1E2022" mask="url(#path-13-outside-1_3057_1509)"/>
<path d="M77.882 35.7778C76.1 35.7778 74.527 35.3928 73.163 34.6228C71.799 33.8308 70.721 32.7528 69.929 31.3888C69.159 30.0028 68.774 28.4188 68.774 26.6368C68.774 24.8328 69.159 23.2488 69.929 21.8848C70.721 20.4988 71.799 19.4208 73.163 18.6508C74.527 17.8588 76.1 17.4628 77.882 17.4628C79.642 17.4628 81.204 17.8588 82.568 18.6508C83.932 19.4208 84.999 20.4988 85.769 21.8848C86.561 23.2488 86.957 24.8328 86.957 26.6368C86.957 28.4188 86.572 30.0028 85.802 31.3888C85.032 32.7528 83.965 33.8308 82.601 34.6228C81.237 35.3928 79.664 35.7778 77.882 35.7778ZM77.882 32.8078C79.026 32.8078 80.038 32.5438 80.918 32.0158C81.798 31.4878 82.48 30.7618 82.964 29.8378C83.47 28.9138 83.723 27.8468 83.723 26.6368C83.723 25.4268 83.47 24.3598 82.964 23.4358C82.48 22.4898 81.798 21.7528 80.918 21.2248C80.038 20.6968 79.026 20.4328 77.882 20.4328C76.738 20.4328 75.726 20.6968 74.846 21.2248C73.966 21.7528 73.273 22.4898 72.767 23.4358C72.261 24.3598 72.008 25.4268 72.008 26.6368C72.008 27.8468 72.261 28.9138 72.767 29.8378C73.273 30.7618 73.966 31.4878 74.846 32.0158C75.726 32.5438 76.738 32.8078 77.882 32.8078Z" stroke="#1E2022" mask="url(#path-13-outside-1_3057_1509)"/>
<path d="M97.6756 35.7778C95.8936 35.7778 94.3206 35.3928 92.9566 34.6228C91.5926 33.8308 90.5146 32.7528 89.7226 31.3888C88.9526 30.0028 88.5676 28.4188 88.5676 26.6368C88.5676 24.8328 88.9526 23.2488 89.7226 21.8848C90.5146 20.4988 91.5926 19.4208 92.9566 18.6508C94.3206 17.8588 95.8936 17.4628 97.6756 17.4628C99.4356 17.4628 100.998 17.8588 102.362 18.6508C103.726 19.4208 104.793 20.4988 105.563 21.8848C106.355 23.2488 106.751 24.8328 106.751 26.6368C106.751 28.4188 106.366 30.0028 105.596 31.3888C104.826 32.7528 103.759 33.8308 102.395 34.6228C101.031 35.3928 99.4576 35.7778 97.6756 35.7778ZM97.6756 32.8078C98.8196 32.8078 99.8316 32.5438 100.712 32.0158C101.592 31.4878 102.274 30.7618 102.758 29.8378C103.264 28.9138 103.517 27.8468 103.517 26.6368C103.517 25.4268 103.264 24.3598 102.758 23.4358C102.274 22.4898 101.592 21.7528 100.712 21.2248C99.8316 20.6968 98.8196 20.4328 97.6756 20.4328C96.5316 20.4328 95.5196 20.6968 94.6396 21.2248C93.7596 21.7528 93.0666 22.4898 92.5606 23.4358C92.0546 24.3598 91.8016 25.4268 91.8016 26.6368C91.8016 27.8468 92.0546 28.9138 92.5606 29.8378C93.0666 30.7618 93.7596 31.4878 94.6396 32.0158C95.5196 32.5438 96.5316 32.8078 97.6756 32.8078Z" stroke="#1E2022" mask="url(#path-13-outside-1_3057_1509)"/>
<path d="M118.36 35.7778C116.644 35.7778 115.104 35.3818 113.74 34.5898C112.376 33.7758 111.298 32.6758 110.506 31.2898C109.714 29.9038 109.307 28.3418 109.285 26.6038V11.5558C109.285 11.0498 109.439 10.6428 109.747 10.3348C110.077 10.0268 110.484 9.8728 110.968 9.8728C111.474 9.8728 111.881 10.0268 112.189 10.3348C112.497 10.6428 112.651 11.0498 112.651 11.5558V20.4658C113.421 19.5418 114.345 18.8158 115.423 18.2878C116.523 17.7378 117.722 17.4628 119.02 17.4628C120.626 17.4628 122.067 17.8698 123.343 18.6838C124.619 19.4758 125.62 20.5648 126.346 21.9508C127.094 23.3148 127.468 24.8658 127.468 26.6038C127.468 28.3418 127.061 29.9038 126.247 31.2898C125.455 32.6758 124.377 33.7758 123.013 34.5898C121.649 35.3818 120.098 35.7778 118.36 35.7778ZM118.36 32.8078C119.482 32.8078 120.483 32.5438 121.363 32.0158C122.243 31.4658 122.936 30.7178 123.442 29.7718C123.97 28.8258 124.234 27.7698 124.234 26.6038C124.234 25.4158 123.97 24.3598 123.442 23.4358C122.936 22.5118 122.243 21.7858 121.363 21.2578C120.483 20.7078 119.482 20.4328 118.36 20.4328C117.26 20.4328 116.259 20.7078 115.357 21.2578C114.477 21.7858 113.784 22.5118 113.278 23.4358C112.772 24.3598 112.519 25.4158 112.519 26.6038C112.519 27.7698 112.772 28.8258 113.278 29.7718C113.784 30.7178 114.477 31.4658 115.357 32.0158C116.259 32.5438 117.26 32.8078 118.36 32.8078Z" stroke="#1E2022" mask="url(#path-13-outside-1_3057_1509)"/>
</svg>
