<svg width="48" height="48" viewBox="0 0 48 48" fill="none" xmlns="http://www.w3.org/2000/svg">
<path d="M39 25C39 22.24 41.24 20 44 20V18C44 10 42 8 34 8H14C6 8 4 10 4 18V19C6.76 19 9 21.24 9 24C9 26.76 6.76 29 4 29V30C4 38 6 40 14 40H34C42 40 44 38 44 30C41.24 30 39 27.76 39 25Z" stroke="#FED47A" stroke-width="2" stroke-linecap="round" stroke-linejoin="round"/>
<path d="M18 29.5L30 17.5" stroke="#FFC549" stroke-width="1.7" stroke-linecap="round" stroke-linejoin="round"/>
<path d="M29.989 29.5H30.007" stroke="#FFC549" stroke-width="2" stroke-linecap="round" stroke-linejoin="round"/>
<path d="M17.989 18.5H18.007" stroke="#FFC549" stroke-width="2" stroke-linecap="round" stroke-linejoin="round"/>
</svg>
