<svg width="548" height="119" viewBox="0 0 548 119" fill="none" xmlns="http://www.w3.org/2000/svg">
<path d="M176.51 61.9206L161.65 31.3399H147.49L169.36 76.2533L153.4 106.468H167.67L206.7 31.3399H192.31L176.51 61.9206Z" fill="black"/>
<path d="M288.08 2.357H275.93V85.003H288.08V2.357Z" fill="black"/>
<path d="M236.18 41.4278C239.46 41.4567 242.66 42.3711 245.43 44.0556C248.2 45.7401 250.43 48.1369 251.86 50.9765H264.45C262.63 44.431 258.4 38.7422 252.55 34.969C246.7 31.1957 239.62 29.6075 232.64 30.4834C225.66 31.3593 219.24 34.6513 214.6 39.7529C209.95 44.8449 207.38 51.3904 207.38 58.1668C207.34 61.8246 208.06 65.4631 209.5 68.8513C210.93 72.2396 213.05 75.3294 215.73 77.9283C218.41 80.5273 221.6 82.5872 225.11 83.9925C228.62 85.3979 232.39 86.1102 236.19 86.1102C242.7 86.1005 249.02 83.9925 254.15 80.1326C259.28 76.2727 262.92 70.8727 264.51 64.7893H251.91C250.65 67.5134 248.65 69.8524 246.12 71.5658C243.59 73.2792 240.63 74.3091 237.54 74.5401C234.46 74.7711 231.36 74.1936 228.59 72.8749C225.82 71.5562 223.46 69.5444 221.78 67.0417C220.1 64.539 219.14 61.6513 219.03 58.677C218.91 55.7027 219.63 52.7476 221.11 50.1294C222.59 47.5112 224.77 45.3262 227.43 43.8054C230.09 42.2845 233.13 41.4856 236.22 41.4856L236.18 41.4278Z" fill="black"/>
<path d="M313.98 31.3399H301.72V85.003H313.98V31.3399Z" fill="black"/>
<path d="M307.86 9.9808C306.85 9.95192 305.85 10.1252 304.91 10.4813C303.97 10.8375 303.12 11.3669 302.4 12.0503C301.68 12.7337 301.11 13.5519 300.73 14.4471C300.35 15.3423 300.16 16.3048 300.17 17.277C300.13 18.2685 300.31 19.26 300.68 20.1936C301.05 21.1177 301.61 21.9648 302.33 22.6867C303.05 23.399 303.91 23.9669 304.86 24.3615C305.81 24.7466 306.83 24.9487 307.87 24.9487C308.9 24.9487 309.93 24.7466 310.88 24.3615C311.83 23.9765 312.69 23.4086 313.41 22.6867C314.13 21.9744 314.69 21.1273 315.06 20.1936C315.43 19.2696 315.6 18.2781 315.57 17.277C315.58 16.3048 315.38 15.3423 314.99 14.4567C314.6 13.5615 314.03 12.753 313.32 12.0696C312.6 11.3862 311.75 10.8567 310.82 10.491C309.87 10.1348 308.87 9.96155 307.86 9.9808Z" fill="black"/>
<path d="M468.31 14.1583H456.27V73.2985C456.27 80.4022 461.95 84.9936 468.75 84.9936H486.28V73.4044H471.61C471.18 73.4044 470.75 73.3177 470.34 73.1637C469.94 73.0001 469.57 72.7691 469.27 72.4707C468.96 72.1723 468.72 71.8257 468.55 71.4311C468.38 71.0461 468.3 70.6322 468.3 70.2086V42.9198H486.25V31.3787H468.3V14.1583H468.31Z" fill="black"/>
<path d="M354.5 30.2621C346.25 30.2621 339.11 32.8418 333.42 38.3091C328.43 43.6803 325.68 50.6396 325.72 57.8493C325.72 65.5883 328.62 72.8749 333.75 77.9188C339.32 83.0974 346.75 86.0236 354.49 86.1006C362.37 86.0332 369.9 82.9915 375.45 77.6204C377.79 75.3295 379.67 72.6343 380.99 69.6792L366.72 69.9969C365.13 71.5658 363.22 72.7883 361.11 73.6065C359 74.4247 356.73 74.8001 354.46 74.7231C349.55 74.7231 345.31 73.2214 342.31 70.1027C340.2 68.1198 338.65 65.6364 337.83 62.9124H383.04L383.09 62.0268C383.2 60.8525 383.39 59.2546 383.39 57.907C383.38 41.9573 370.89 30.2621 354.5 30.2621ZM338.11 52.0546C340.49 45.7305 346.74 41.399 354.47 41.399C357.99 41.3316 361.44 42.323 364.35 44.2289C367.26 46.1348 369.47 48.8781 370.68 52.0546H338.11Z" fill="black"/>
<path d="M420.66 30.2621C415.5 30.2621 410.63 31.6674 406.94 35.0364V31.3305H394.9V84.9936H406.94V54.1241C406.94 47.2514 412.29 41.2354 419.32 41.2354C426.7 41.2354 432.03 47.1455 432.03 54.1241V85.0322H444.02V53.2386C444.06 39.9166 434.48 30.2621 420.66 30.2621Z" fill="black"/>
<path d="M530.19 52.2856H512.79C511.51 52.2856 510.28 51.7947 509.38 50.9284C508.47 50.0621 507.97 48.8781 507.97 47.6461C507.97 46.414 508.48 45.23 509.38 44.3637C510.28 43.4974 511.51 43.0065 512.79 43.0065H543.99V31.3305H512.79C508.34 31.4268 504.12 33.1979 501.01 36.2589C497.9 39.3198 496.16 43.43 496.16 47.7134C496.16 51.9969 497.9 56.107 501.01 59.168C504.12 62.2289 508.35 64.0001 512.79 64.0963H530.19C530.82 64.0771 531.45 64.1926 532.03 64.414C532.62 64.6353 533.15 64.9722 533.59 65.4054C534.04 65.8385 534.39 66.3487 534.62 66.907C534.85 67.4749 534.97 68.0717 534.95 68.6781C534.95 69.9006 534.45 71.0846 533.56 71.9605C532.67 72.8364 531.46 73.3466 530.18 73.3755H497.97V85.0514H530.18C532.45 85.0995 534.7 84.7145 536.82 83.9156C538.93 83.1166 540.85 81.9134 542.48 80.3926C544.1 78.8621 545.39 77.0428 546.27 75.0311C547.15 73.0193 547.6 70.8535 547.6 68.6685C547.6 66.4835 547.15 64.3177 546.27 62.306C545.39 60.2942 544.1 58.4653 542.48 56.9445C540.86 55.4236 538.93 54.2204 536.82 53.4215C534.71 52.6129 532.46 52.2279 530.19 52.2856Z" fill="black"/>
<path d="M100.13 0.836426H22.6199C19.6999 0.836426 16.8099 1.38509 14.1099 2.46317C11.4099 3.54124 8.95987 5.11023 6.89987 7.10275C4.83987 9.08563 3.19986 11.4439 2.07986 14.0428C0.959864 16.6418 0.389893 19.4236 0.389893 22.2343V96.8428C0.389893 99.6535 0.959864 102.435 2.07986 105.025C3.19986 107.624 4.82987 109.972 6.89987 111.965C8.95987 113.948 11.4099 115.526 14.1099 116.595C16.8099 117.673 19.6899 118.221 22.6099 118.221H100.12C103.04 118.221 105.93 117.673 108.62 116.595C111.32 115.517 113.76 113.948 115.83 111.965C117.89 109.982 119.53 107.624 120.65 105.025C121.77 102.426 122.34 99.6535 122.34 96.8428V22.2343C122.34 19.4236 121.77 16.6418 120.65 14.0525C119.54 11.4535 117.9 9.10486 115.84 7.11235C113.78 5.12946 111.33 3.55088 108.64 2.4728C105.93 1.39473 103.04 0.836426 100.13 0.836426ZM118.26 96.8428C118.25 101.473 116.34 105.901 112.94 109.173C109.54 112.446 104.93 114.285 100.13 114.294H22.6199C17.8099 114.294 13.1999 112.456 9.79987 109.183C6.39987 105.91 4.47989 101.473 4.47989 96.8428V22.2343C4.47989 17.6044 6.38989 13.1669 9.78989 9.89418C13.1899 6.62146 17.7999 4.78295 22.6099 4.77332H100.12C104.93 4.78295 109.54 6.62146 112.94 9.89418C116.34 13.1669 118.25 17.6044 118.26 22.2343V96.8428Z" fill="black"/>
<path d="M97.7799 31.4268H71.5599C70.9399 31.4653 70.3399 31.6289 69.7899 31.9177C69.2399 32.2065 68.7699 32.6011 68.3999 33.0824L39.1399 76.7445C38.8399 77.245 38.6899 77.8225 38.6899 78.4C38.6899 78.9776 38.8499 79.5551 39.1399 80.0557L51.9699 99.5958C52.0699 99.7979 52.2199 99.9712 52.4199 100.087C52.6099 100.212 52.8399 100.27 53.0699 100.27C53.2999 100.27 53.5299 100.202 53.7199 100.087C53.9199 99.9712 54.0699 99.7979 54.1699 99.5958L98.7099 33.0824C99.3299 32.1776 98.8999 31.4268 97.7799 31.4268Z" fill="black"/>
<path d="M43.1699 56.6461L58.9499 33.0824C59.5599 32.1969 59.1399 31.4268 58.0299 31.4268H26.4999C25.3799 31.4268 24.9499 32.1776 25.5799 33.092L40.9899 56.6364C41.0899 56.8289 41.2399 57.0022 41.4299 57.1177C41.6199 57.2332 41.8499 57.3006 42.0699 57.3006C42.2999 57.3006 42.5199 57.2429 42.7099 57.1273C42.9199 57.0022 43.0699 56.8386 43.1699 56.6461Z" fill="black"/>
</svg>
