<svg width="16" height="16" viewBox="0 0 16 16" fill="none" xmlns="http://www.w3.org/2000/svg">
<path d="M7.16691 1.63338C7.63358 1.24005 8.38691 1.24005 8.84025 1.63338L9.89358 2.53338C10.0936 2.70005 10.4736 2.84005 10.7402 2.84005H11.8736C12.5802 2.84005 13.1602 3.42005 13.1602 4.12671V5.26005C13.1602 5.52671 13.3002 5.90005 13.4669 6.10005L14.3669 7.15338C14.7602 7.62005 14.7602 8.37338 14.3669 8.82671L13.4669 9.88005C13.3002 10.08 13.1602 10.4534 13.1602 10.72V11.8534C13.1602 12.56 12.5802 13.14 11.8736 13.14H10.7402C10.4736 13.14 10.1002 13.28 9.90025 13.4467L8.84691 14.3467C8.38025 14.74 7.62691 14.74 7.17358 14.3467L6.12025 13.4467C5.92025 13.28 5.54025 13.14 5.28025 13.14H4.11358C3.40691 13.14 2.82691 12.56 2.82691 11.8534V10.7134C2.82691 10.4534 2.69358 10.0734 2.52691 9.88005L1.62691 8.82005C1.24025 8.36005 1.24025 7.61338 1.62691 7.15338L2.52691 6.09338C2.69358 5.89338 2.82691 5.52005 2.82691 5.26005V4.13338C2.82691 3.42671 3.40691 2.84671 4.11358 2.84671H5.26691C5.53358 2.84671 5.90691 2.70671 6.10691 2.54005L7.16691 1.63338Z" stroke="#328FE4" stroke-width="1.5" stroke-linecap="round" stroke-linejoin="round"/>
<path d="M8 5.41992V8.63992" stroke="#328FE4" stroke-width="1.5" stroke-linecap="round" stroke-linejoin="round"/>
<path d="M7.99609 10.6667H8.00208" stroke="#328FE4" stroke-width="2" stroke-linecap="round" stroke-linejoin="round"/>
</svg>
