<svg width="18" height="18" viewBox="0 0 18 18" fill="none" xmlns="http://www.w3.org/2000/svg">
<path d="M9 9C11.0711 9 12.75 7.32107 12.75 5.25C12.75 3.17893 11.0711 1.5 9 1.5C6.92893 1.5 5.25 3.17893 5.25 5.25C5.25 7.32107 6.92893 9 9 9Z" stroke="CurrentColor" stroke-width="1.5" stroke-linecap="round" stroke-linejoin="round"/>
<path d="M14.4073 11.805L11.7523 14.46C11.6473 14.565 11.5498 14.76 11.5273 14.9025L11.3848 15.915C11.3323 16.2825 11.5873 16.5375 11.9548 16.485L12.9673 16.3425C13.1098 16.32 13.3123 16.2225 13.4098 16.1175L16.0648 13.4625C16.5223 13.005 16.7398 12.4725 16.0648 11.7975C15.3973 11.13 14.8648 11.3475 14.4073 11.805Z" stroke="CurrentColor" stroke-width="1.5" stroke-miterlimit="10" stroke-linecap="round" stroke-linejoin="round"/>
<path d="M14.0249 12.1875C14.2499 12.9975 14.8799 13.6275 15.6899 13.8525" stroke="CurrentColor" stroke-width="1.5" stroke-miterlimit="10" stroke-linecap="round" stroke-linejoin="round"/>
<path d="M2.55762 16.5C2.55762 13.5975 5.44514 11.25 9.00014 11.25C9.78014 11.25 10.5301 11.3625 11.2276 11.5725" stroke="CurrentColor" stroke-width="1.5" stroke-linecap="round" stroke-linejoin="round"/>
</svg>
